<svg width="48" height="48" viewBox="0 0 48 48" fill="none" xmlns="http://www.w3.org/2000/svg">
<path fill-rule="evenodd" clip-rule="evenodd" d="M22.6875 10.3812C22.6875 10.3812 22.6877 10.3812 22.8301 9.39141C22.9725 8.40159 22.973 8.40167 22.973 8.40167L22.9761 8.40211L22.9836 8.40321L23.0101 8.40716C23.0327 8.41059 23.0654 8.41559 23.1075 8.42225C23.1916 8.43556 23.3135 8.45547 23.4686 8.4825C23.7787 8.53654 24.2224 8.61912 24.7639 8.73438C25.8453 8.96454 27.3253 9.32676 28.9154 9.85535C30.5021 10.3828 32.2221 11.0836 33.7721 11.9986C35.3153 12.9096 36.7477 14.0665 37.6894 15.5311C38.5953 16.9401 38.8348 18.3301 38.2396 19.6059C37.6871 20.7904 36.515 21.6371 35.1972 22.2843C32.5708 23.5743 28.599 24.4244 24.8087 25.2356L24.7125 25.2562C20.7916 26.0955 17.0694 26.8985 14.7034 28.0591C13.5133 28.6429 12.8621 29.2272 12.6104 29.7729C12.4012 30.2264 12.3733 30.8709 13.0475 31.9031C14.4076 33.9853 17.3213 35.5629 20.102 36.6337C21.4606 37.1569 22.7286 37.5375 23.6576 37.7872C24.1214 37.9119 24.4989 38.0035 24.7586 38.0635C24.8884 38.0935 24.9887 38.1156 25.0555 38.13C25.0754 38.1343 25.0923 38.1379 25.1061 38.1408C25.1155 38.1428 25.1236 38.1444 25.1301 38.1458L25.1476 38.1494L25.1513 38.1502C25.1513 38.1502 25.1515 38.1502 24.9541 39.1305C24.7567 40.1109 24.7562 40.1108 24.7562 40.1108L24.7533 40.1102L24.7465 40.1088L24.7225 40.1038C24.7019 40.0995 24.6724 40.0933 24.6344 40.0851C24.5583 40.0688 24.4483 40.0445 24.3082 40.0121C24.0282 39.9474 23.6276 39.8502 23.1384 39.7187C22.1615 39.4561 20.8238 39.0548 19.3833 38.5001C16.5658 37.4151 13.1076 35.6523 11.3731 32.9969C10.4587 31.597 10.2057 30.2111 10.7943 28.9352C11.3403 27.7515 12.5098 26.9075 13.8226 26.2635C16.4332 24.9829 20.3867 24.1368 24.167 23.3277L24.2939 23.3005C28.214 22.4614 31.9409 21.6555 34.3155 20.4892C35.5095 19.9028 36.1689 19.314 36.4271 18.7604C36.6428 18.2981 36.6724 17.6475 36.0071 16.6128C35.2965 15.5075 34.1505 14.5445 32.7554 13.721C31.3673 12.9015 29.7892 12.2534 28.2845 11.7532C26.7831 11.2541 25.3782 10.9099 24.3476 10.6906C23.8331 10.5811 23.4139 10.5031 23.1252 10.4528C22.981 10.4277 22.8694 10.4095 22.795 10.3977C22.7578 10.3918 22.7299 10.3875 22.7118 10.3848L22.6922 10.3819L22.6875 10.3812Z" fill="#F6C548"/>
<path d="M27.8571 32.1429C27.8571 32.3796 27.6653 32.5714 27.4286 32.5714C27.1919 32.5714 27 32.3796 27 32.1429C27 31.9062 27.1919 31.7143 27.4286 31.7143C27.6653 31.7143 27.8571 31.9062 27.8571 32.1429Z" fill="#F6C548"/>
<path fill-rule="evenodd" clip-rule="evenodd" d="M27.4286 35.1429V45.4286H32.1429V35.1429H27.4286ZM31.2857 36H28.2857V44.5714H31.2857V36Z" fill="#F6C548"/>
<path fill-rule="evenodd" clip-rule="evenodd" d="M34.2857 35.1429H38.5714V45.4286H34.2857V35.1429ZM37.7143 36V44.5714H35.1429V36H37.7143Z" fill="#F6C548"/>
<path fill-rule="evenodd" clip-rule="evenodd" d="M45.4286 35.1429H40.7143V45.4286H45.4286V35.1429ZM44.5714 44.5714V36H41.5714V44.5714H44.5714Z" fill="#F6C548"/>
<path fill-rule="evenodd" clip-rule="evenodd" d="M24.8571 30H48V48H24.8571V30ZM25.7143 30.8571H47.1429V33L25.7143 33V30.8571ZM47.1429 33.4286V47.1429H25.7143V33.4286H47.1429Z" fill="#F6C548"/>
<path fill-rule="evenodd" clip-rule="evenodd" d="M3.49327 2.18329C3.49327 2.42445 3.29777 2.61995 3.05661 2.61995C2.81545 2.61995 2.61995 2.42445 2.61995 2.18329C2.61995 1.94213 2.81545 1.74663 3.05661 1.74663C3.29777 1.74663 3.49327 1.94213 3.49327 2.18329ZM3.0647 2.18329L3.06424 2.1863L3.06233 2.18901L3.05963 2.19091L3.05661 2.19137L3.05359 2.19091L3.05089 2.18901L3.04898 2.1863L3.04852 2.18329L3.04898 2.18027L3.05089 2.17757L3.05359 2.17566L3.05661 2.1752L3.05963 2.17566L3.06233 2.17757L3.06424 2.18027L3.0647 2.18329Z" fill="#F6C548"/>
<path fill-rule="evenodd" clip-rule="evenodd" d="M2.61995 5.23989V15.283H6.98653V5.23989H2.61995ZM6.12939 6.09703H3.47709V14.4259H6.12939V6.09703Z" fill="#F6C548"/>
<path fill-rule="evenodd" clip-rule="evenodd" d="M8.2965 9.60647V5.23989H20.5229V9.60647H8.2965ZM9.15364 6.09703H19.6658V8.74932H9.15364V6.09703Z" fill="#F6C548"/>
<path fill-rule="evenodd" clip-rule="evenodd" d="M8.2965 10.0431V15.283H20.5229V10.0431H8.2965ZM19.6658 10.9003H9.15364V14.4259H19.6658V10.9003Z" fill="#F6C548"/>
<path fill-rule="evenodd" clip-rule="evenodd" d="M0 0H23.1429V17.903H0V0ZM0.857143 0.857143H22.2857V3.06469L0.857143 3.06469V0.857143ZM22.2857 3.49326V17.0458H0.857143V3.49326L22.2857 3.49326Z" fill="#F6C548"/>
<path d="M27.8571 24C27.8571 25.6569 26.514 27 24.8571 27C23.2003 27 21.8571 25.6569 21.8571 24C21.8571 22.3431 23.2003 21 24.8571 21C26.514 21 27.8571 22.3431 27.8571 24Z" fill="#F6C548"/>
</svg>
