<svg width="56" height="56" viewBox="0 0 56 56" fill="none" xmlns="http://www.w3.org/2000/svg">
<path d="M16.3333 42.5833H39.6667V14H56V56H16.3333V42.5833Z" fill="white"/>
<path d="M0 0H39.6667V42.5833H0V0Z" fill="white"/>
<path d="M5.53076 9.67871H33.1944V15.4572H5.53076V9.67871Z" fill="#C4E0EC"/>
<path d="M5.53076 18.9243H33.1944V24.7028H5.53076V18.9243Z" fill="#C4E0EC"/>
<path d="M5.53076 28.17H33.1944V33.9485H5.53076V28.17Z" fill="#C4E0EC"/>
<path d="M42.6118 33.3706H49.0863V39.1491H42.6118V33.3706Z" fill="#C4E0EC"/>
<path d="M42.6118 23.5471H49.0863V29.3257H42.6118V23.5471Z" fill="#C4E0EC"/>
<path d="M42.6118 45.5055V42.6162H49.0863V48.3948H23.1884V45.5055H42.6118Z" fill="#C4E0EC"/>
<path d="M39.9453 13.8271H42.8644V23.2501H39.9453V13.8271Z" fill="#C1BDBC"/>
<path d="M39.9453 29.1394H42.8644V33.262H39.9453V29.1394Z" fill="#C1BDBC"/>
<path d="M39.9453 39.1513H42.8644V42.6849H39.9453V39.1513Z" fill="#C1BDBC"/>
<path d="M16.5928 42.6849H23.5985V45.6296H16.5928V42.6849Z" fill="#C1BDBC"/>
<path d="M39.9313 33.4032H42.8644V39.2252H39.9313V33.4032Z" fill="#109AFE"/>
<path d="M39.9313 23.5059H42.8644V29.3278H39.9313V23.5059Z" fill="#109AFE"/>
<path d="M23.5063 42.7183H42.8644V45.6293H23.5063V42.7183Z" fill="#109AFE"/>
<path d="M4.83987 4.1484L3.91798 3.45703L3.45708 3.80268L4.37897 4.49405L3.45703 5.18546L3.91793 5.53111L4.83987 4.8397L5.76157 5.53092L6.22246 5.18527L5.30077 4.49405L6.22241 3.80286L5.76152 3.45722L4.83987 4.1484Z" fill="#2B9DFD"/>
</svg>
