<svg width="48" height="36" viewBox="0 0 48 36" fill="none" xmlns="http://www.w3.org/2000/svg">
<path d="M23.0722 8.4075H35.9394V7.5225H23.0722V8.4075Z" fill="#F6C548"/>
<path d="M23.0722 13.275H31.9803V12.39H23.0722V13.275Z" fill="#F6C548"/>
<path d="M8.55704 7.86155L12.6413 14.9463L15.5661 8.2312L16.38 8.5838L12.7518 16.9137L8.64474 9.78929L6.04863 15.4185C6.15136 15.563 6.21175 15.7394 6.21175 15.93C6.21175 16.4188 5.81445 16.815 5.32436 16.815C4.83427 16.815 4.43697 16.4188 4.43697 15.93C4.43697 15.4688 4.79073 15.09 5.24241 15.0487L8.55704 7.86155Z" fill="#F6C548"/>
<path fill-rule="evenodd" clip-rule="evenodd" d="M22.5651 26.7784C21.9056 26.7784 21.299 27.2927 20.8186 27.8858C20.754 27.9655 20.6917 28.0467 20.6319 28.1282C20.0856 28.8726 19.7445 29.6475 19.7445 29.6475C19.7445 29.6475 19.4034 28.8726 18.8571 28.1282C18.7973 28.0467 18.735 27.9655 18.6704 27.8858C18.1901 27.2927 17.5834 26.7784 16.9239 26.7784H0V4.04743e-05H16.9239C17.5834 4.04743e-05 18.1901 0.514326 18.6704 1.10742C19.3246 1.91519 19.7445 2.86915 19.7445 2.86915C19.7445 2.86915 20.1644 1.91521 20.8186 1.10744C21.299 0.514375 21.9056 0.000104354 22.5651 4.04743e-05C23.5054 -5.05929e-05 39.489 4.04743e-05 39.489 4.04743e-05V14.6796C42.5996 15.8439 44.8134 18.8373 44.8134 22.3463C44.8134 24.7182 43.8018 26.8545 42.1855 28.3496L48 34.1484L46.745 35.4L40.7452 29.4164C39.5298 30.1259 38.115 30.5325 36.605 30.5325C33.7093 30.5325 31.1638 29.0371 29.7025 26.7784H22.5651ZM28.8404 25.0084H22.5651C21.7769 25.0084 21.1217 25.3085 20.6319 25.6426V5.25655L21.3678 3.58477L21.3681 3.58399L21.3685 3.583L21.3733 3.57269C21.379 3.5602 21.3891 3.53845 21.4033 3.50878C21.4318 3.44922 21.4763 3.35909 21.5348 3.24882C21.654 3.02415 21.8207 2.73626 22.018 2.45908C22.2224 2.17174 22.4164 1.95772 22.5753 1.83104C22.6119 1.80184 22.64 1.78248 22.6598 1.77004L37.7142 1.77003V14.2341C37.3515 14.1852 36.9812 14.16 36.605 14.16C34 14.16 31.6785 15.3702 30.1748 17.2575H23.0722V18.1425H29.5601C28.8213 19.3713 28.3966 20.8093 28.3966 22.3463C28.3966 23.2782 28.5527 24.1738 28.8404 25.0084ZM18.8571 25.6426V5.25664L18.1212 3.58467L18.121 3.58417L18.1204 3.58296L18.1157 3.57265C18.11 3.56016 18.0999 3.53841 18.0857 3.50874C18.0572 3.44918 18.0127 3.35904 17.9542 3.24877C17.835 3.02409 17.6683 2.73619 17.471 2.45901C17.2665 2.17166 17.0726 1.95765 16.9137 1.831C16.8771 1.80183 16.8491 1.78247 16.8293 1.77004H1.77479V25.0084H16.9239C17.7121 25.0084 18.3673 25.3085 18.8571 25.6426ZM16.7974 1.75197C16.7946 1.75066 16.7933 1.75021 16.7933 1.75021L16.7945 1.75082L16.7974 1.75197ZM43.4823 22.3463C43.4823 26.1342 40.4032 29.205 36.605 29.205C32.8067 29.205 29.7277 26.1342 29.7277 22.3463C29.7277 22.1223 29.7384 21.9009 29.7595 21.6825H36.8268V19.9125H30.1732C31.1578 17.3259 33.6661 15.4875 36.605 15.4875C40.4032 15.4875 43.4823 18.5583 43.4823 22.3463Z" fill="#F6C548"/>
</svg>
