<svg width="48" height="49" viewBox="0 0 48 49" fill="none" xmlns="http://www.w3.org/2000/svg">
<path fill-rule="evenodd" clip-rule="evenodd" d="M31.1473 21.3496C31.0395 21.2557 30.9182 21.1522 30.7846 21.0406C30.1599 20.5189 29.2911 19.8406 28.3273 19.1696C27.361 18.4968 26.3162 17.8433 25.3368 17.3614C24.3317 16.8668 23.4978 16.6052 22.9217 16.6052C22.3507 16.6052 21.5482 16.8637 20.5918 17.3548C19.659 17.8339 18.6739 18.4843 17.7665 19.1553C16.8615 19.8244 16.0512 20.5009 15.4701 21.0212C15.3368 21.1407 15.2168 21.2507 15.1114 21.3496C15.2168 21.4484 15.3368 21.5585 15.4701 21.6779C16.0512 22.1982 16.8615 22.8747 17.7665 23.5438C18.6739 24.2148 19.659 24.8653 20.5918 25.3443C21.5482 25.8355 22.3507 26.0939 22.9217 26.0939C23.4978 26.0939 24.3317 25.8323 25.3368 25.3377C26.3162 24.8558 27.361 24.2023 28.3273 23.5296C29.2911 22.8585 30.1599 22.1803 30.7846 21.6585C30.9182 21.5469 31.0395 21.4435 31.1473 21.3496ZM22.9217 26.9565C26.0399 26.9565 32.3702 21.5784 32.3702 21.3496C32.3702 21.1207 26.0399 15.7426 22.9217 15.7426C19.8035 15.7426 13.9342 21.1207 13.9342 21.3496C13.9342 21.5784 19.8035 26.9565 22.9217 26.9565Z" fill="#F6C548"/>
<path fill-rule="evenodd" clip-rule="evenodd" d="M22.9378 24.3687C24.5953 24.3687 25.939 23.017 25.939 21.3496C25.939 19.6821 24.5953 18.3304 22.9378 18.3304C21.2803 18.3304 19.9366 19.6821 19.9366 21.3496C19.9366 23.017 21.2803 24.3687 22.9378 24.3687ZM22.9378 25.2313C25.0689 25.2313 26.7965 23.4934 26.7965 21.3496C26.7965 19.2057 25.0689 17.4678 22.9378 17.4678C20.8067 17.4678 19.0791 19.2057 19.0791 21.3496C19.0791 23.4934 20.8067 25.2313 22.9378 25.2313Z" fill="#F6C548"/>
<path fill-rule="evenodd" clip-rule="evenodd" d="M0 0V24.153H4.28744V28.8974H9.00363V33.2104H33.3898C33.4894 32.7563 33.6329 32.3227 33.8146 31.9165H10.2899V10.3513H36.0145V29.3519C36.4154 29.1088 36.847 28.9258 37.3007 28.813V9.05739H33.0133V4.31304H28.2971V0H0ZM4.28744 22.8591H1.28623V1.29391H27.0109V4.31304H4.28744V22.8591ZM9.00363 27.6035H5.57367V5.60696H31.7271V9.05739H9.00363V27.6035Z" fill="#F6C548"/>
<path fill-rule="evenodd" clip-rule="evenodd" d="M38.3726 39.033C40.0284 39.033 41.8025 37.3611 41.8025 34.72C41.8025 32.0789 40.0284 30.407 38.3726 30.407C36.7168 30.407 34.9426 32.0789 34.9426 34.72C34.9426 37.3611 36.7168 39.033 38.3726 39.033ZM38.3726 40.7583C41.2141 40.7583 43.5175 38.0548 43.5175 34.72C43.5175 31.3852 41.2141 28.6817 38.3726 28.6817C35.5311 28.6817 33.2277 31.3852 33.2277 34.72C33.2277 38.0548 35.5311 40.7583 38.3726 40.7583Z" fill="#F6C548"/>
<path fill-rule="evenodd" clip-rule="evenodd" d="M48 48.5217C47.8684 47.9246 47.6834 47.3478 47.4501 46.7965C45.9483 43.247 42.4494 40.7583 38.3726 40.7583C34.2958 40.7583 30.7968 43.247 29.295 46.7965C29.0618 47.3478 28.8767 47.9246 28.7451 48.5217H48ZM31.1959 46.7965H45.5492C44.1734 44.2284 41.4743 42.4835 38.3726 42.4835C35.2708 42.4835 32.5717 44.2284 31.1959 46.7965Z" fill="#F6C548"/>
</svg>
