<svg width="48" height="43" viewBox="0 0 48 43" fill="none" xmlns="http://www.w3.org/2000/svg">
<path d="M8.47244 27.9397H10.2319L11.1255 25.467H14.6025L15.4822 27.9397H17.3673L13.9881 18.6637H11.9634L8.47244 27.9397ZM12.8989 20.5636L14.1138 24.0002H11.6422L12.8989 20.5636Z" fill="#F6C548"/>
<path d="M20.7646 28.1073C21.7421 28.1073 22.4961 27.7301 22.915 27.0456V27.9397H24.5767V23.7906C24.5767 22.0025 23.4875 21.2202 21.7002 21.2202C19.843 21.2202 18.6701 22.212 18.6142 23.7068H20.3317V23.609C20.3736 23.0223 20.7925 22.5752 21.6862 22.5752C22.5799 22.5752 22.929 22.9385 22.929 23.3296V23.3995C22.8871 23.7627 22.2727 23.8186 21.0578 24.056C19.5777 24.3774 18.4746 24.7126 18.4746 26.1934C18.4746 27.339 19.3543 28.1073 20.7646 28.1073ZM21.1695 26.864C20.5691 26.864 20.22 26.5567 20.22 26.1096C20.22 25.5229 20.7227 25.2994 21.393 25.1317C21.9375 24.992 22.5519 24.8803 22.929 24.6568V25.2155C22.8871 26.4449 21.9934 26.864 21.1695 26.864Z" fill="#F6C548"/>
<path d="M34.0364 24.8838C34.0364 33.8046 26.8078 41.0364 17.8909 41.0364C8.97403 41.0364 1.74546 33.8046 1.74546 24.8838C1.74546 15.9629 8.97403 8.73114 17.8909 8.73114C21.922 8.73114 25.6081 10.2091 28.4372 12.6529C28.8697 12.2308 29.3852 11.8936 29.9571 11.6682C26.7757 8.75931 22.5404 6.98492 17.8909 6.98492C8.01004 6.98492 0 14.9985 0 24.8838C0 34.769 8.01004 42.7826 17.8909 42.7826C27.7718 42.7826 35.7819 34.769 35.7819 24.8838C35.7819 22.8944 35.4574 20.9808 34.8587 19.1931C34.4286 19.6188 33.9147 19.9598 33.3439 20.1893C33.7943 21.6749 34.0364 23.251 34.0364 24.8838Z" fill="#F6C548"/>
<path fill-rule="evenodd" clip-rule="evenodd" d="M40.4791 2.71314L37.8467 1.1927L26.8322 20.2789L26.7697 23.786L29.4441 21.8347L40.4791 2.71314ZM30.1076 22.4312L25.8658 25.5262L25.9637 20.0377L37.5273 0L41.6712 2.39355L30.1076 22.4312Z" fill="#F6C548"/>
<path d="M27.9264 28.8101C27.2811 28.7946 26.6527 28.7108 26.0483 28.5655C27.2152 33.4644 31.6187 37.1074 36.8727 37.1074C43.0181 37.1074 48 32.1233 48 25.9752C48 19.827 43.0181 14.8429 36.8727 14.8429C36.4424 14.8429 36.0178 14.8674 35.6002 14.9149C35.9488 15.4395 36.2435 16.0029 36.4765 16.5974C36.6079 16.5919 36.74 16.5892 36.8727 16.5892C42.0542 16.5892 46.2545 20.7914 46.2545 25.9752C46.2545 31.1589 42.0542 35.3611 36.8727 35.3611C32.6789 35.3611 29.1278 32.6082 27.9264 28.8101Z" fill="#F6C548"/>
</svg>
