<svg width="56" height="56" viewBox="0 0 56 56" fill="none" xmlns="http://www.w3.org/2000/svg">
<path d="M16.3333 42.5833H39.6667V14H56V56H16.3333V42.5833Z" fill="white"/>
<path d="M0 0H39.6667V42.5833H0V0Z" fill="white"/>
<path d="M6.22217 9.33301H33.3918V15.1373H6.22217V9.33301Z" fill="#C4E0EC"/>
<path d="M6.22217 18.6199H33.3918V24.4242H6.22217V18.6199Z" fill="#C4E0EC"/>
<path d="M6.22217 27.9068H33.3918V33.7111H6.22217V27.9068Z" fill="#C4E0EC"/>
<path d="M42.6411 33.1307H48.9999V38.935H42.6411V33.1307Z" fill="#C4E0EC"/>
<path d="M42.6411 23.2634H48.9999V29.0677H42.6411V23.2634Z" fill="#C4E0EC"/>
<path d="M42.6411 45.3197V42.4176H48.9999V48.2219H23.5645V45.3197H42.6411Z" fill="#C4E0EC"/>
<path d="M39.8394 14H42.7777V23.4486H39.8394V14Z" fill="#C1BDBC"/>
<path d="M39.8394 29.3539H42.7777V33.4877H39.8394V29.3539Z" fill="#C1BDBC"/>
<path d="M39.8394 39.393H42.7777V42.9362H39.8394V39.393Z" fill="#C1BDBC"/>
<path d="M16.3333 42.9362H23.3851V45.8889H16.3333V42.9362Z" fill="#C1BDBC"/>
<path d="M39.8316 33.4237H42.7777V39.3593H39.8316V33.4237Z" fill="#109AFE"/>
<path d="M39.8316 23.333H42.7777V29.2687H39.8316V23.333Z" fill="#109AFE"/>
<path d="M23.3333 42.9207H42.7777V45.8886H23.3333V42.9207Z" fill="#109AFE"/>
<path d="M5.05544 3.88912L4.2776 3.11133L3.88871 3.50018L4.66656 4.27797L3.88867 5.05581L4.27755 5.44466L5.05544 4.66683L5.83312 5.44445L6.22201 5.0556L5.44432 4.27797L6.22196 3.50039L5.83308 3.11154L5.05544 3.88912Z" fill="#2B9DFD"/>
</svg>
