<svg width="56" height="56" viewBox="0 0 56 56" fill="none" xmlns="http://www.w3.org/2000/svg">
<rect x="16.9167" width="21.5833" height="9.91667" fill="#109AFE"/>
<path fill-rule="evenodd" clip-rule="evenodd" d="M27.4167 18.667V9.91699H28.5833V18.667H49.2737L49.583 28.5654L48.417 28.6019L48.1429 19.8337H28.5833V28.5837H27.4167V19.8337H7.29167V28.5837H6.125V18.667H27.4167ZM6.41667 46.667V37.917H7.58333V46.667H6.41667ZM27.4167 46.667V37.917H28.5833V46.667H27.4167ZM48.4167 46.667V37.917H49.5833V46.667H48.4167Z" fill="#414141"/>
<path d="M0 28.583H14V37.9163H0V28.583Z" fill="#B8CEF1"/>
<path d="M0 46.6663H14V55.9997H0V46.6663Z" fill="#B8CEF1"/>
<path d="M42 28.583H56V37.9163H42V28.583Z" fill="#FCDEA4"/>
<path d="M42 46.6663H56V55.9997H42V46.6663Z" fill="#FCDEA4"/>
<path d="M21 28.583H35V37.9163H21V28.583Z" fill="#FF7777"/>
<path d="M21 46.6663H35V55.9997H21V46.6663Z" fill="#FF7777"/>
</svg>
