<svg width="56" height="56" viewBox="0 0 56 56" fill="none" xmlns="http://www.w3.org/2000/svg">
<path d="M43.4488 24.2902C44.2467 23.8454 44.9925 23.3388 45.6816 22.7694C49.1327 19.9174 51.0378 15.5906 51.0378 9.92383H49.2864C49.2864 15.1652 47.5429 18.9457 44.5726 21.4004C44.2171 21.6942 43.8423 21.9704 43.4488 22.2288V24.2902Z" fill="#414141"/>
<path d="M17.179 32.128V29.52C17.1079 29.5873 17.0377 29.6552 16.9683 29.7237C13.7938 32.8582 12.4975 37.198 12.8027 41.8226L14.5501 41.7049C14.3088 38.0486 15.166 34.7115 17.179 32.128Z" fill="#414141"/>
<path d="M0 45.2652L4.65303 41.1143H18.0305L22.6835 45.2652V56.0003H9.07342H0V45.2652Z" fill="#F6C548"/>
<path d="M18.1101 41.1143H4.96191L8.96355 44.6586H22.6834L18.1101 41.1143Z" fill="#109AFE"/>
<path d="M56 5.67089C56 8.80283 53.461 11.3418 50.3291 11.3418C47.1971 11.3418 44.6582 8.80283 44.6582 5.67089C44.6582 2.53894 47.1971 0 50.3291 0C53.461 0 56 2.53894 56 5.67089Z" fill="#109AFE"/>
<path d="M41.114 34.7346H21.5724L19.8481 33.0103H39.3897V13.4688L41.114 15.193V34.7346Z" fill="#C1BDBC"/>
<path d="M19.8481 13.4688H39.6962V33.3169H19.8481V13.4688Z" fill="white"/>
<path fill-rule="evenodd" clip-rule="evenodd" d="M35.8621 20.3929H23.3926V19.8477H35.8621V20.3929ZM35.8621 23.6646H23.3926V23.1193H35.8621V23.6646ZM36.1521 26.9363H23.3926V26.391H36.1521V26.9363Z" fill="#2B9DFD"/>
<path d="M8.50635 44.6582H22.6836V56H8.50635V44.6582Z" fill="#EB5757"/>
</svg>
