<svg width="56" height="56" viewBox="0 0 56 56" fill="none" xmlns="http://www.w3.org/2000/svg">
<rect x="16.3032" width="22.6835" height="9.21516" fill="#109AFE"/>
<path fill-rule="evenodd" clip-rule="evenodd" d="M27.2026 18.16V9.21484H28.3824V18.16H49.3065V28.7221H48.163V19.3526H28.3824V28.7221H27.2026V19.3526H6.85025V28.7221H5.67041V18.16H27.2026ZM5.96537 46.7843V37.8392H7.14522V46.7843H5.96537ZM27.2026 46.7843V37.8392H28.3824V46.7843H27.2026ZM48.4398 46.7843V37.8392H49.6196V46.7843H48.4398Z" fill="#414141"/>
<path d="M0 29.0625H14.1772V38.2324H0V29.0625Z" fill="#B8CEF1"/>
<path d="M0 46.8292H14.1772V55.9991H0V46.8292Z" fill="#B8CEF1"/>
<path d="M42.5312 29.0625H55.9996V38.2324H42.5312V29.0625Z" fill="#F6C548"/>
<path d="M42.5312 46.8292H55.9996V55.9991H42.5312V46.8292Z" fill="#F6C548"/>
<path d="M20.5571 29.0625H35.4431V38.2324H20.5571V29.0625Z" fill="#FF7777"/>
<path d="M20.5571 46.8292H35.4431V55.9991H20.5571V46.8292Z" fill="#FF7777"/>
</svg>
