<svg width="56" height="46" viewBox="0 0 56 46" fill="none" xmlns="http://www.w3.org/2000/svg">
<path d="M0 0H56V46H0V0Z" fill="white"/>
<path d="M0 0H56V5.11111H0V0Z" fill="#414141"/>
<path d="M5.02588 8.76172H15.0772V40.8887H5.02588V8.76172Z" fill="#938F8F"/>
<path d="M17.9487 8.76172H26.8832V18.4415H17.9487V8.76172Z" fill="#109AFE"/>
<path d="M29.1168 20.2565H38.0513V29.9363H29.1168V20.2565Z" fill="#109AFE"/>
<path d="M17.9487 20.4443H26.8832V29.7904H17.9487V20.4443Z" fill="#B8CEF1"/>
<path d="M29.1168 31.5427H38.0513V40.8888H29.1168V31.5427Z" fill="#B8CEF1"/>
<path d="M17.9487 31.3696H27.1795V40.8887H17.9487V31.3696Z" fill="#FF7777"/>
<path d="M41.0257 8.76172H50.2564V18.2808H41.0257V8.76172Z" fill="#FF7777"/>
<path d="M40.2051 20.4443H50.2564V29.9364H40.2051V20.4443Z" fill="#C0B7B7"/>
<path d="M29.436 8.76172H38.6896V18.2808H29.436V8.76172Z" fill="#F6C548"/>
<path d="M41.003 31.3696H50.2565V40.8887H41.003V31.3696Z" fill="#F6C548"/>
<path d="M7.17973 2.5552C7.17973 3.16008 6.69757 3.65044 6.1028 3.65044C5.50803 3.65044 5.02588 3.16008 5.02588 2.5552C5.02588 1.95032 5.50803 1.45996 6.1028 1.45996C6.69757 1.45996 7.17973 1.95032 7.17973 2.5552Z" fill="#F96D63"/>
</svg>
