<svg width="56" height="45" viewBox="0 0 56 45" fill="none" xmlns="http://www.w3.org/2000/svg">
<path d="M0 0H56V44.9167H0V0Z" fill="white"/>
<path d="M0 0H56V5.25H0V0Z" fill="#414141"/>
<path d="M5.25 8.75H14.5833V40.25H5.25V8.75Z" fill="#938F8F"/>
<path d="M17.5 8.75H26.8333V18.0833H17.5V8.75Z" fill="#109AFE"/>
<path d="M29.1667 19.8333H38.5V29.1667H29.1667V19.8333Z" fill="#109AFE"/>
<path d="M17.5 19.833H26.8333V29.1663H17.5V19.833Z" fill="#B8CEF1"/>
<path d="M29.1667 30.9163H38.5V40.2497H29.1667V30.9163Z" fill="#B8CEF1"/>
<path d="M17.5 30.9167H26.8333V40.25H17.5V30.9167Z" fill="#FF7777"/>
<path d="M40.8333 8.75H50.1667V18.0833H40.8333V8.75Z" fill="#FF7777"/>
<path d="M40.8333 19.833H50.1666V29.1663H40.8333V19.833Z" fill="#C0B7B7"/>
<path d="M29.1667 8.75H38.5001V18.0833H29.1667V8.75Z" fill="#FCDEA4"/>
<path d="M40.8334 30.9167H50.1667V40.25H40.8334V30.9167Z" fill="#FCDEA4"/>
<path d="M7 2.625C7 3.10825 6.60825 3.5 6.125 3.5C5.64175 3.5 5.25 3.10825 5.25 2.625C5.25 2.14175 5.64175 1.75 6.125 1.75C6.60825 1.75 7 2.14175 7 2.625Z" fill="#F96D63"/>
</svg>
