<svg width="56" height="56" viewBox="0 0 56 56" fill="none" xmlns="http://www.w3.org/2000/svg">
<path d="M43.7499 24.421C44.5473 23.981 45.2926 23.4798 45.9811 22.9165C49.4297 20.0949 51.3333 15.8142 51.3332 10.208H49.5832C49.5833 15.3934 47.841 19.1336 44.8729 21.562C44.5177 21.8527 44.1432 22.1259 43.7499 22.3816V24.421Z" fill="#414141"/>
<path d="M17.4999 32.1751V29.595C17.4289 29.6616 17.3587 29.7287 17.2893 29.7965C14.1172 32.8975 12.8219 37.191 13.1268 41.7662L14.873 41.6498C14.6319 38.0325 15.4884 34.7311 17.4999 32.1751Z" fill="#414141"/>
<path d="M0 45.0622L4.66667 40.833H18.0833L22.75 45.0622V55.9997H9.1H0V45.0622Z" fill="#F4EAC6"/>
<path d="M18.0834 40.833H4.66675L8.75008 44.9163H22.7501L18.0834 40.833Z" fill="#109AFE"/>
<path d="M56.0001 5.54167C56.0001 8.60224 53.519 11.0833 50.4584 11.0833C47.3978 11.0833 44.9167 8.60224 44.9167 5.54167C44.9167 2.48109 47.3978 0 50.4584 0C53.519 0 56.0001 2.48109 56.0001 5.54167Z" fill="#109AFE"/>
<path d="M41.4166 35.0003H21.5833L19.8333 33.2503H39.6666V13.417L41.4166 15.167V35.0003Z" fill="#C1BDBC"/>
<path d="M19.8333 13.417H39.6666V33.2503H19.8333V13.417Z" fill="white"/>
<path fill-rule="evenodd" clip-rule="evenodd" d="M35.8749 20.1253H23.3333V19.542H35.8749V20.1253ZM35.8749 23.6253H23.3333V23.042H35.8749V23.6253ZM36.1666 27.1253H23.3333V26.542H36.1666V27.1253Z" fill="#2B9DFD"/>
<path d="M8.75 44.917H22.75V56.0003H8.75V44.917Z" fill="#EB5757"/>
</svg>
