<svg width="48" height="48" viewBox="0 0 48 48" fill="none" xmlns="http://www.w3.org/2000/svg">
<path fill-rule="evenodd" clip-rule="evenodd" d="M14.2013 16.2538H16.6558L16.9726 18.4669C17.75 18.6428 18.4779 18.9486 19.1322 19.3603L20.9247 18.0186L22.6603 19.7508L21.316 21.5398C21.7285 22.1929 22.0349 22.9193 22.2111 23.6952L24.4286 24.0113V26.4611L22.2111 26.7772C22.0349 27.553 21.7285 28.2795 21.316 28.9326L22.6603 30.7216L20.9247 32.4538L19.1322 31.1121C18.4779 31.5238 17.75 31.8296 16.9726 32.0054L16.6558 34.2186H14.2013L13.8845 32.0054C13.1072 31.8296 12.3793 31.5237 11.725 31.1121L9.93244 32.4538L8.1968 30.7216L9.54117 28.9326C9.12866 28.2795 8.82227 27.553 8.64604 26.7772L6.42857 26.4611V24.0113L8.64604 23.6952C8.82227 22.9193 9.12869 22.1928 9.54117 21.5398L8.1968 19.7508L9.93244 18.0186L11.7249 19.3603C12.3793 18.9486 13.1072 18.6428 13.8845 18.4669L14.2013 16.2538ZM10.9286 25.2362C10.9286 27.7166 12.9433 29.7274 15.4286 29.7274C17.9139 29.7274 19.9286 27.7166 19.9286 25.2362C19.9286 22.7558 17.9139 20.745 15.4286 20.745C12.9433 20.745 10.9286 22.7558 10.9286 25.2362Z" fill="#F6C548"/>
<path fill-rule="evenodd" clip-rule="evenodd" d="M38.5714 5.04514L33.1061 11.1236L31.2538 9.29242L29.6074 11.5488L28.7143 10.6762L31.1243 7.50924L33.0548 9.41771L37.6767 4.27732L38.5714 5.04514Z" fill="#F6C548"/>
<path fill-rule="evenodd" clip-rule="evenodd" d="M0 9.83784H24V0H41.5714V17.537H30.4286V23.5253H48V47.4783H24.4286V40.2068H0V9.83784ZM29.1429 38.9236V11.121H1.28571V38.9236H29.1429ZM25.7143 40.2068V46.1951H46.7143V24.8085H30.4286V40.2068H25.7143ZM25.2857 9.82358H30.5571V16.2538H40.2857V1.2832H25.2857V9.82358Z" fill="#F6C548"/>
<path fill-rule="evenodd" clip-rule="evenodd" d="M31.2857 43.6287V36.3572H33.8571V43.6287H31.2857Z" fill="#F6C548"/>
<path fill-rule="evenodd" clip-rule="evenodd" d="M35.1429 43.6287V27.3749H37.7143V43.6287H35.1429Z" fill="#F6C548"/>
<path fill-rule="evenodd" clip-rule="evenodd" d="M39 43.6287V33.7908H41.5714V43.6287H39Z" fill="#F6C548"/>
</svg>
