<svg viewBox="0 0 375 105" fill="none" xmlns="http://www.w3.org/2000/svg">
<path d="M76.4452 65.8978H81.1657V48.4592H76.4452V65.8978Z" fill="#302C2C"/>
<path d="M98.0111 65.8978H102.222V41.0051H97.5017V49.827C96.313 48.6986 94.7848 48.0147 92.917 48.0147C87.8568 48.0147 84.8683 52.5624 84.8683 57.2127C84.8683 61.9314 87.9926 66.3423 92.917 66.3423C94.9206 66.3423 96.5168 65.5901 97.7054 64.3591L98.0111 65.8978ZM93.5622 62.2391C90.9812 62.2391 89.7586 59.8114 89.7586 57.2127C89.7586 54.7508 90.8793 52.1179 93.5622 52.1179C95.8036 52.1179 97.8413 53.9644 97.8413 57.2127C97.8413 60.1875 96.0413 62.2391 93.5622 62.2391Z" fill="#302C2C"/>
<path d="M120.344 61.1108C118.714 61.7946 117.22 62.2391 115.318 62.2391C112.125 62.2391 110.971 60.3243 110.631 58.1701H122.246C122.246 52.1179 119.393 48.0147 114.129 48.0147C108.899 48.0147 105.911 52.2889 105.911 57.2127C105.911 62.1707 109.171 66.3423 115.182 66.3423C117.457 66.3423 119.291 65.932 121.295 65.0088L120.344 61.1108ZM110.767 55.0585C111.31 52.7334 112.771 52.1179 114.129 52.1179C115.454 52.1179 116.948 52.4257 117.525 55.0585H110.767Z" fill="#302C2C"/>
<path d="M138.205 65.8978H142.417V48.8012L137.696 48.4592V49.827C136.507 48.6986 134.979 48.0147 133.111 48.0147C128.187 48.0147 125.063 52.4257 125.063 57.1443C125.063 61.7946 128.051 66.3423 133.111 66.3423C135.115 66.3423 136.711 65.5901 137.9 64.3249L138.205 65.8978ZM133.757 62.2391C131.074 62.2391 129.953 59.6063 129.953 57.1443C129.953 54.5456 131.176 52.1179 133.757 52.1179C136.236 52.1179 138.036 54.1695 138.036 57.1443C138.036 60.3927 135.998 62.2391 133.757 62.2391Z" fill="#302C2C"/>
<path d="M146.818 65.8978H151.029L151.335 64.3591C152.524 65.5901 154.12 66.3423 156.123 66.3423C161.048 66.3423 164.172 61.9314 164.172 57.2127C164.172 52.5624 161.184 48.0147 156.123 48.0147C154.222 48.0147 152.693 48.6986 151.539 49.827V40.5606L146.818 41.3812V65.8978ZM155.478 62.2391C152.999 62.2391 151.199 60.1875 151.199 57.2127C151.199 53.9644 153.237 52.1179 155.478 52.1179C158.161 52.1179 159.282 54.7508 159.282 57.2127C159.282 59.8114 158.059 62.2391 155.478 62.2391Z" fill="#302C2C"/>
<path d="M180.29 65.8978H184.501V48.8012L179.781 48.4592V49.827C178.592 48.6986 177.064 48.0147 175.196 48.0147C170.272 48.0147 167.147 52.4257 167.147 57.1443C167.147 61.7946 170.136 66.3423 175.196 66.3423C177.2 66.3423 178.796 65.5901 179.985 64.3249L180.29 65.8978ZM175.841 62.2391C173.159 62.2391 172.038 59.6063 172.038 57.1443C172.038 54.5456 173.26 52.1179 175.841 52.1179C178.321 52.1179 180.12 54.1695 180.12 57.1443C180.12 60.3927 178.083 62.2391 175.841 62.2391Z" fill="#302C2C"/>
<path d="M187.714 64.9404C189.582 65.932 191.416 66.3423 193.352 66.3423C196.85 66.3423 199.804 64.154 199.804 60.974C199.804 55.5031 193.046 55.4347 193.046 53.2463C193.046 52.494 193.454 52.0837 194.608 52.0837C195.695 52.0837 196.816 52.3573 197.903 52.8702L199.261 49.2115C197.563 48.4251 195.899 48.0147 194.235 48.0147C190.873 48.0147 188.156 50.1347 188.156 53.2463C188.156 58.9908 194.914 58.5463 194.914 60.9056C194.914 61.7604 194.269 62.2733 193.114 62.2733C191.62 62.2733 190.261 61.7262 188.801 61.0766L187.714 64.9404Z" fill="#302C2C"/>
<path d="M216.999 61.1108C215.369 61.7946 213.875 62.2391 211.973 62.2391C208.781 62.2391 207.626 60.3243 207.287 58.1701H218.901C218.901 52.1179 216.049 48.0147 210.785 48.0147C205.555 48.0147 202.566 52.2889 202.566 57.2127C202.566 62.1707 205.826 66.3423 211.837 66.3423C214.113 66.3423 215.947 65.932 217.95 65.0088L216.999 61.1108ZM207.423 55.0585C207.966 52.7334 209.426 52.1179 210.785 52.1179C212.109 52.1179 213.603 52.4257 214.181 55.0585H207.423Z" fill="#302C2C"/>
<path d="M81.5055 41.3646C81.5055 42.8754 80.295 44.1001 78.7886 44.1001C77.2823 44.1001 76.0718 42.8754 76.0718 41.3646C76.0718 39.8539 77.2882 38.6292 78.7886 38.6292C80.2891 38.6292 81.5055 39.8539 81.5055 41.3646Z" fill="#302C2C"/>
<path fill-rule="evenodd" clip-rule="evenodd" d="M47.4366 28.0119C46.5333 27.4195 45.3566 27.4195 44.4533 28.0119L28.3986 38.5417C27.6585 39.0115 27.1685 39.8299 27.1685 40.7608C27.1685 42.2183 28.3694 43.3998 29.8508 43.3998C30.414 43.3998 30.9366 43.229 31.3681 42.9373L45.945 33.3768L57.2034 40.7609L44.4654 49.1153C42.8688 50.1625 42.8689 52.4706 44.4654 53.5177L57.2034 61.8722L45.945 69.2562L32.5332 60.4599V47.688H27.1685V61.8686C27.1685 62.7532 27.6178 63.5792 28.3659 64.0698L44.4533 74.6211C45.3566 75.2135 46.5333 75.2135 47.4366 74.6211L63.5187 64.0734C65.1152 63.0262 65.1152 60.7181 63.5187 59.671L50.7807 51.3165L63.5187 42.9621C65.1152 41.9149 65.1152 39.6068 63.5187 38.5597L47.4366 28.0119Z" fill="#302C2C"/>
<path d="M276.867 86.9347H279.53V77.0951H276.867V86.9347Z" fill="#302C2C"/>
<path d="M289.032 86.9347H291.408V72.8892H288.745V77.8669C288.074 77.2302 287.212 76.8443 286.159 76.8443C283.304 76.8443 281.619 79.4103 281.619 82.0342C281.619 84.6967 283.381 87.1855 286.159 87.1855C287.289 87.1855 288.189 86.7611 288.86 86.0665L289.032 86.9347ZM286.523 84.8703C285.067 84.8703 284.377 83.5005 284.377 82.0342C284.377 80.6451 285.009 79.1595 286.523 79.1595C287.787 79.1595 288.937 80.2013 288.937 82.0342C288.937 83.7127 287.921 84.8703 286.523 84.8703Z" fill="#302C2C"/>
<path d="M301.63 84.2336C300.71 84.6195 299.867 84.8703 298.795 84.8703C296.994 84.8703 296.343 83.7899 296.151 82.5744H302.703C302.703 79.1595 301.094 76.8443 298.124 76.8443C295.174 76.8443 293.488 79.256 293.488 82.0342C293.488 84.8317 295.327 87.1855 298.718 87.1855C300.002 87.1855 301.036 86.954 302.166 86.4331L301.63 84.2336ZM296.228 80.8187C296.534 79.5068 297.358 79.1595 298.124 79.1595C298.871 79.1595 299.714 79.3332 300.04 80.8187H296.228Z" fill="#302C2C"/>
<path d="M311.705 86.9347H314.081V77.2881L311.418 77.0951V77.8669C310.747 77.2302 309.885 76.8443 308.832 76.8443C306.054 76.8443 304.292 79.3332 304.292 81.9956C304.292 84.6195 305.977 87.1855 308.832 87.1855C309.962 87.1855 310.862 86.761 311.533 86.0472L311.705 86.9347ZM309.196 84.8703C307.682 84.8703 307.05 83.3847 307.05 81.9956C307.05 80.5293 307.74 79.1595 309.196 79.1595C310.594 79.1595 311.609 80.3171 311.609 81.9956C311.609 83.8285 310.46 84.8703 309.196 84.8703Z" fill="#302C2C"/>
<path d="M316.564 86.9347H318.939L319.111 86.0665C319.782 86.7611 320.682 87.1855 321.812 87.1855C324.59 87.1855 326.353 84.6967 326.353 82.0342C326.353 79.4103 324.667 76.8443 321.812 76.8443C320.74 76.8443 319.878 77.2302 319.226 77.8669V72.6384L316.564 73.1014V86.9347ZM321.449 84.8703C320.05 84.8703 319.035 83.7127 319.035 82.0342C319.035 80.2013 320.184 79.1595 321.449 79.1595C322.962 79.1595 323.594 80.6451 323.594 82.0342C323.594 83.5005 322.904 84.8703 321.449 84.8703Z" fill="#302C2C"/>
<path d="M335.445 86.9347H337.82V77.2881L335.157 77.0951V77.8669C334.487 77.2302 333.625 76.8443 332.571 76.8443C329.793 76.8443 328.031 79.3332 328.031 81.9956C328.031 84.6195 329.717 87.1855 332.571 87.1855C333.701 87.1855 334.602 86.761 335.272 86.0472L335.445 86.9347ZM332.935 84.8703C331.422 84.8703 330.789 83.3847 330.789 81.9956C330.789 80.5293 331.479 79.1595 332.935 79.1595C334.333 79.1595 335.349 80.3171 335.349 81.9956C335.349 83.8285 334.199 84.8703 332.935 84.8703Z" fill="#302C2C"/>
<path d="M339.632 86.3945C340.686 86.954 341.72 87.1855 342.812 87.1855C344.786 87.1855 346.452 85.9507 346.452 84.1565C346.452 81.0695 342.64 81.031 342.64 79.7962C342.64 79.3717 342.87 79.1402 343.521 79.1402C344.134 79.1402 344.766 79.2946 345.379 79.584L346.146 77.5196C345.188 77.0759 344.249 76.8443 343.31 76.8443C341.414 76.8443 339.881 78.0405 339.881 79.7962C339.881 83.0375 343.694 82.7866 343.694 84.1179C343.694 84.6002 343.33 84.8896 342.678 84.8896C341.835 84.8896 341.069 84.5809 340.245 84.2143L339.632 86.3945Z" fill="#302C2C"/>
<path d="M356.152 84.2336C355.232 84.6195 354.389 84.8703 353.316 84.8703C351.516 84.8703 350.864 83.7899 350.673 82.5744H357.224C357.224 79.1595 355.615 76.8443 352.646 76.8443C349.696 76.8443 348.01 79.256 348.01 82.0342C348.01 84.8317 349.849 87.1855 353.24 87.1855C354.523 87.1855 355.558 86.954 356.688 86.4331L356.152 84.2336ZM350.749 80.8187C351.056 79.5068 351.88 79.1595 352.646 79.1595C353.393 79.1595 354.236 79.3332 354.562 80.8187H350.749Z" fill="#302C2C"/>
<path d="M279.722 73.0921C279.722 73.9445 279.039 74.6355 278.189 74.6355C277.34 74.6355 276.657 73.9445 276.657 73.0921C276.657 72.2396 277.343 71.5486 278.189 71.5486C279.036 71.5486 279.722 72.2396 279.722 73.0921Z" fill="#302C2C"/>
<path d="M318.188 16.9667C317.286 16.364 316.113 16.364 315.211 16.9667L299.193 27.6818C298.456 28.16 297.968 28.9918 297.968 29.9379C297.968 31.4207 299.166 32.6228 300.644 32.6228C301.207 32.6228 301.729 32.4484 302.16 32.1506L316.7 22.4251L327.931 29.9379L315.224 38.4379C313.631 39.5033 313.631 41.8517 315.224 42.9171L327.931 51.4172L316.7 58.93L303.32 49.9802V36.9858H297.968V51.4136C297.968 52.3135 298.416 53.1539 299.163 53.6531L315.211 64.3883C316.113 64.9911 317.286 64.9911 318.188 64.3883L334.231 53.6567C335.824 52.5913 335.824 50.243 334.231 49.1776L321.524 40.6775L334.231 32.1774C335.824 31.112 335.824 28.7637 334.231 27.6983L318.188 16.9667Z" fill="#302C2C"/>
</svg>
