<svg viewBox="0 0 375 105" fill="none" xmlns="http://www.w3.org/2000/svg">
<path d="M76.4457 65.5229H81.1662V48.0713H76.4457V65.5229Z" fill="#302C2C"/>
<path d="M98.0116 65.5229H102.223V40.6116H97.5021V49.44C96.3135 48.3108 94.7853 47.6265 92.9174 47.6265C87.8573 47.6265 84.8687 52.1775 84.8687 56.8313C84.8687 61.5535 87.9931 65.9677 92.9174 65.9677C94.9211 65.9677 96.5173 65.2149 97.7059 63.983L98.0116 65.5229ZM93.5627 61.8615C90.9817 61.8615 89.7591 59.4319 89.7591 56.8313C89.7591 54.3675 90.8798 51.7327 93.5627 51.7327C95.8041 51.7327 97.8418 53.5805 97.8418 56.8313C97.8418 59.8083 96.0418 61.8615 93.5627 61.8615Z" fill="#302C2C"/>
<path d="M120.344 60.7322C118.714 61.4166 117.22 61.8615 115.318 61.8615C112.126 61.8615 110.971 59.9452 110.632 57.7894H122.246C122.246 51.7327 119.394 47.6265 114.13 47.6265C108.9 47.6265 105.911 51.9038 105.911 56.8313C105.911 61.793 109.171 65.9677 115.182 65.9677C117.458 65.9677 119.292 65.5571 121.295 64.6332L120.344 60.7322ZM110.768 54.6755C111.311 52.3486 112.771 51.7327 114.13 51.7327C115.454 51.7327 116.948 52.0407 117.526 54.6755H110.768Z" fill="#302C2C"/>
<path d="M138.206 65.5229H142.417V48.4135L137.697 48.0713V49.44C136.508 48.3108 134.98 47.6265 133.112 47.6265C128.188 47.6265 125.063 52.0407 125.063 56.7629C125.063 61.4166 128.052 65.9677 133.112 65.9677C135.116 65.9677 136.712 65.2149 137.9 63.9488L138.206 65.5229ZM133.757 61.8615C131.074 61.8615 129.954 59.2266 129.954 56.7629C129.954 54.1622 131.176 51.7327 133.757 51.7327C136.236 51.7327 138.036 53.7858 138.036 56.7629C138.036 60.0136 135.999 61.8615 133.757 61.8615Z" fill="#302C2C"/>
<path d="M146.819 65.5229H151.03L151.336 63.983C152.524 65.2149 154.12 65.9677 156.124 65.9677C161.048 65.9677 164.173 61.5535 164.173 56.8313C164.173 52.1775 161.184 47.6265 156.124 47.6265C154.222 47.6265 152.694 48.3108 151.539 49.44V40.1668L146.819 40.988V65.5229ZM155.479 61.8615C153 61.8615 151.2 59.8083 151.2 56.8313C151.2 53.5805 153.237 51.7327 155.479 51.7327C158.162 51.7327 159.282 54.3675 159.282 56.8313C159.282 59.4319 158.06 61.8615 155.479 61.8615Z" fill="#302C2C"/>
<path d="M180.291 65.5229H184.502V48.4135L179.781 48.0713V49.44C178.593 48.3108 177.065 47.6265 175.197 47.6265C170.272 47.6265 167.148 52.0407 167.148 56.7629C167.148 61.4166 170.137 65.9677 175.197 65.9677C177.2 65.9677 178.797 65.2149 179.985 63.9488L180.291 65.5229ZM175.842 61.8615C173.159 61.8615 172.038 59.2266 172.038 56.7629C172.038 54.1622 173.261 51.7327 175.842 51.7327C178.321 51.7327 180.121 53.7858 180.121 56.7629C180.121 60.0136 178.083 61.8615 175.842 61.8615Z" fill="#302C2C"/>
<path d="M187.715 64.5647C189.583 65.5571 191.417 65.9677 193.352 65.9677C196.85 65.9677 199.805 63.7777 199.805 60.5954C199.805 55.1204 193.047 55.0519 193.047 52.8619C193.047 52.1091 193.454 51.6985 194.609 51.6985C195.696 51.6985 196.816 51.9722 197.903 52.4855L199.262 48.8241C197.564 48.0371 195.899 47.6265 194.235 47.6265C190.873 47.6265 188.156 49.748 188.156 52.8619C188.156 58.6107 194.915 58.1658 194.915 60.5269C194.915 61.3824 194.269 61.8957 193.115 61.8957C191.62 61.8957 190.262 61.3482 188.802 60.698L187.715 64.5647Z" fill="#302C2C"/>
<path d="M217 60.7322C215.37 61.4166 213.876 61.8615 211.974 61.8615C208.782 61.8615 207.627 59.9452 207.287 57.7894H218.902C218.902 51.7327 216.049 47.6265 210.785 47.6265C205.555 47.6265 202.567 51.9038 202.567 56.8313C202.567 61.793 205.827 65.9677 211.838 65.9677C214.113 65.9677 215.947 65.5571 217.951 64.6332L217 60.7322ZM207.423 54.6755C207.966 52.3486 209.427 51.7327 210.785 51.7327C212.11 51.7327 213.604 52.0407 214.181 54.6755H207.423Z" fill="#302C2C"/>
<path d="M81.506 40.9714C81.506 42.4833 80.2955 43.7089 78.7891 43.7089C77.2828 43.7089 76.0723 42.4833 76.0723 40.9714C76.0723 39.4595 77.2887 38.2339 78.7891 38.2339C80.2896 38.2339 81.506 39.4595 81.506 40.9714Z" fill="#302C2C"/>
<path fill-rule="evenodd" clip-rule="evenodd" d="M47.4341 27.6165C46.531 27.0129 45.3544 27.0129 44.4513 27.6165L28.3972 38.345C27.6581 38.8237 27.1689 39.6569 27.1689 40.6046C27.1689 42.0894 28.3697 43.293 29.8509 43.293C30.4147 43.293 30.9379 43.1186 31.3697 42.8207L45.9427 33.082L57.1995 40.6046L44.4634 49.1158C42.867 50.1826 42.867 52.534 44.4634 53.6008L57.1995 62.112L45.9427 69.6346L32.5329 60.6732V47.6617H27.1689V62.1084C27.1689 63.0095 27.6182 63.851 28.3662 64.3509L44.4513 75.1001C45.3544 75.7037 46.531 75.7037 47.4341 75.1001L63.5138 64.3545C65.1102 63.2877 65.1102 60.9363 63.5138 59.8695L50.7777 51.3583L63.5138 42.8471C65.1102 41.7803 65.1102 39.4289 63.5138 38.3621L47.4341 27.6165Z" fill="#109AFE"/>
<path d="M276.867 86.9349H279.53V77.0954H276.867V86.9349Z" fill="#302C2C"/>
<path d="M289.032 86.9349H291.408V72.8894H288.745V77.8671C288.074 77.2304 287.212 76.8445 286.159 76.8445C283.304 76.8445 281.619 79.4105 281.619 82.0344C281.619 84.6969 283.381 87.1857 286.159 87.1857C287.289 87.1857 288.189 86.7613 288.86 86.0667L289.032 86.9349ZM286.523 84.8705C285.067 84.8705 284.377 83.5007 284.377 82.0344C284.377 80.6453 285.009 79.1597 286.523 79.1597C287.787 79.1597 288.937 80.2016 288.937 82.0344C288.937 83.7129 287.921 84.8705 286.523 84.8705Z" fill="#302C2C"/>
<path d="M301.63 84.2339C300.71 84.6197 299.867 84.8705 298.795 84.8705C296.994 84.8705 296.343 83.7901 296.151 82.5746H302.703C302.703 79.1597 301.094 76.8445 298.124 76.8445C295.174 76.8445 293.488 79.2562 293.488 82.0344C293.488 84.8319 295.327 87.1857 298.718 87.1857C300.002 87.1857 301.036 86.9542 302.166 86.4333L301.63 84.2339ZM296.228 80.8189C296.534 79.507 297.358 79.1597 298.124 79.1597C298.871 79.1597 299.714 79.3334 300.04 80.8189H296.228Z" fill="#302C2C"/>
<path d="M311.705 86.9349H314.081V77.2883L311.418 77.0954V77.8671C310.747 77.2304 309.885 76.8445 308.832 76.8445C306.054 76.8445 304.292 79.3334 304.292 81.9958C304.292 84.6197 305.977 87.1857 308.832 87.1857C309.962 87.1857 310.862 86.7613 311.533 86.0474L311.705 86.9349ZM309.196 84.8705C307.682 84.8705 307.05 83.3849 307.05 81.9958C307.05 80.5296 307.74 79.1597 309.196 79.1597C310.594 79.1597 311.609 80.3173 311.609 81.9958C311.609 83.8287 310.46 84.8705 309.196 84.8705Z" fill="#302C2C"/>
<path d="M316.564 86.9349H318.939L319.111 86.0667C319.782 86.7613 320.682 87.1857 321.812 87.1857C324.59 87.1857 326.353 84.6969 326.353 82.0344C326.353 79.4105 324.667 76.8445 321.812 76.8445C320.74 76.8445 319.878 77.2304 319.226 77.8671V72.6386L316.564 73.1017V86.9349ZM321.449 84.8705C320.05 84.8705 319.035 83.7129 319.035 82.0344C319.035 80.2016 320.184 79.1597 321.449 79.1597C322.962 79.1597 323.594 80.6453 323.594 82.0344C323.594 83.5007 322.904 84.8705 321.449 84.8705Z" fill="#302C2C"/>
<path d="M335.445 86.9349H337.82V77.2883L335.157 77.0954V77.8671C334.487 77.2304 333.625 76.8445 332.571 76.8445C329.793 76.8445 328.031 79.3334 328.031 81.9958C328.031 84.6197 329.717 87.1857 332.571 87.1857C333.701 87.1857 334.602 86.7613 335.272 86.0474L335.445 86.9349ZM332.935 84.8705C331.422 84.8705 330.789 83.3849 330.789 81.9958C330.789 80.5296 331.479 79.1597 332.935 79.1597C334.333 79.1597 335.349 80.3173 335.349 81.9958C335.349 83.8287 334.199 84.8705 332.935 84.8705Z" fill="#302C2C"/>
<path d="M339.632 86.3947C340.686 86.9542 341.72 87.1857 342.812 87.1857C344.786 87.1857 346.452 85.9509 346.452 84.1567C346.452 81.0698 342.64 81.0312 342.64 79.7964C342.64 79.372 342.87 79.1404 343.521 79.1404C344.134 79.1404 344.766 79.2948 345.379 79.5842L346.146 77.5198C345.188 77.0761 344.249 76.8445 343.31 76.8445C341.414 76.8445 339.881 78.0407 339.881 79.7964C339.881 83.0377 343.694 82.7869 343.694 84.1181C343.694 84.6004 343.33 84.8898 342.678 84.8898C341.835 84.8898 341.069 84.5811 340.245 84.2146L339.632 86.3947Z" fill="#302C2C"/>
<path d="M356.152 84.2339C355.232 84.6197 354.389 84.8705 353.316 84.8705C351.516 84.8705 350.864 83.7901 350.673 82.5746H357.224C357.224 79.1597 355.615 76.8445 352.646 76.8445C349.696 76.8445 348.01 79.2562 348.01 82.0344C348.01 84.8319 349.849 87.1857 353.24 87.1857C354.523 87.1857 355.558 86.9542 356.688 86.4333L356.152 84.2339ZM350.749 80.8189C351.056 79.507 351.88 79.1597 352.646 79.1597C353.393 79.1597 354.236 79.3334 354.562 80.8189H350.749Z" fill="#302C2C"/>
<path d="M279.722 73.0923C279.722 73.9447 279.039 74.6357 278.189 74.6357C277.34 74.6357 276.657 73.9447 276.657 73.0923C276.657 72.2399 277.343 71.5488 278.189 71.5488C279.036 71.5488 279.722 72.2399 279.722 73.0923Z" fill="#302C2C"/>
<path fill-rule="evenodd" clip-rule="evenodd" d="M318.185 16.9751C317.284 16.3615 316.11 16.3615 315.209 16.9751L299.191 27.8845C298.455 28.3716 297.968 29.2177 297.968 30.1798C297.968 31.6894 299.166 32.9131 300.644 32.9131C301.207 32.9131 301.73 32.7351 302.161 32.4312L316.697 22.5317L327.927 30.1798L315.221 38.8329C313.629 39.9175 313.629 42.3081 315.221 43.3927L327.927 52.0458L316.697 59.6938L303.319 50.583V37.3546H297.968V52.0421C297.968 52.9583 298.416 53.8138 299.163 54.322L315.209 65.2505C316.11 65.8641 317.284 65.8641 318.185 65.2505L334.226 54.3257C335.818 53.2411 335.818 50.8505 334.226 49.7659L321.52 41.1128L334.226 32.4597C335.818 31.3751 335.818 28.9845 334.226 27.8999L318.185 16.9751Z" fill="#109AFE"/>
</svg>
