<svg viewBox="0 0 374 105" fill="none" xmlns="http://www.w3.org/2000/svg">
<path d="M76.4457 66.4931H81.1662V49.0415H76.4457V66.4931Z" fill="white"/>
<path d="M98.0116 66.4931H102.223V41.5818H97.5021V50.4103C96.3135 49.281 94.7853 48.5967 92.9174 48.5967C87.8573 48.5967 84.8687 53.1478 84.8687 57.8015C84.8687 62.5237 87.9931 66.9379 92.9174 66.9379C94.9211 66.9379 96.5173 66.1851 97.7059 64.9532L98.0116 66.4931ZM93.5627 62.8317C90.9817 62.8317 89.7591 60.4021 89.7591 57.8015C89.7591 55.3378 90.8798 52.7029 93.5627 52.7029C95.8041 52.7029 97.8418 54.5507 97.8418 57.8015C97.8418 60.7785 96.0418 62.8317 93.5627 62.8317Z" fill="white"/>
<path d="M120.344 61.7025C118.714 62.3868 117.22 62.8317 115.318 62.8317C112.126 62.8317 110.971 60.9154 110.632 58.7596H122.246C122.246 52.7029 119.394 48.5967 114.13 48.5967C108.9 48.5967 105.911 52.874 105.911 57.8015C105.911 62.7632 109.171 66.9379 115.182 66.9379C117.458 66.9379 119.292 66.5273 121.295 65.6034L120.344 61.7025ZM110.768 55.6457C111.311 53.3189 112.771 52.7029 114.13 52.7029C115.454 52.7029 116.948 53.0109 117.526 55.6457H110.768Z" fill="white"/>
<path d="M138.206 66.4931H142.417V49.3837L137.697 49.0415V50.4103C136.508 49.281 134.98 48.5967 133.112 48.5967C128.188 48.5967 125.063 53.0109 125.063 57.7331C125.063 62.3868 128.052 66.9379 133.112 66.9379C135.116 66.9379 136.712 66.1851 137.9 64.919L138.206 66.4931ZM133.757 62.8317C131.074 62.8317 129.954 60.1968 129.954 57.7331C129.954 55.1324 131.176 52.7029 133.757 52.7029C136.236 52.7029 138.036 54.756 138.036 57.7331C138.036 60.9839 135.999 62.8317 133.757 62.8317Z" fill="white"/>
<path d="M146.819 66.4931H151.03L151.336 64.9532C152.524 66.1851 154.12 66.9379 156.124 66.9379C161.048 66.9379 164.173 62.5237 164.173 57.8015C164.173 53.1478 161.184 48.5967 156.124 48.5967C154.222 48.5967 152.694 49.281 151.539 50.4103V41.137L146.819 41.9582V66.4931ZM155.479 62.8317C153 62.8317 151.2 60.7785 151.2 57.8015C151.2 54.5507 153.237 52.7029 155.479 52.7029C158.162 52.7029 159.282 55.3378 159.282 57.8015C159.282 60.4021 158.06 62.8317 155.479 62.8317Z" fill="white"/>
<path d="M180.291 66.4931H184.502V49.3837L179.781 49.0415V50.4103C178.593 49.281 177.065 48.5967 175.197 48.5967C170.272 48.5967 167.148 53.0109 167.148 57.7331C167.148 62.3868 170.137 66.9379 175.197 66.9379C177.2 66.9379 178.797 66.1851 179.985 64.919L180.291 66.4931ZM175.842 62.8317C173.159 62.8317 172.038 60.1968 172.038 57.7331C172.038 55.1324 173.261 52.7029 175.842 52.7029C178.321 52.7029 180.121 54.756 180.121 57.7331C180.121 60.9839 178.083 62.8317 175.842 62.8317Z" fill="white"/>
<path d="M187.715 65.535C189.583 66.5273 191.417 66.9379 193.352 66.9379C196.85 66.9379 199.805 64.7479 199.805 61.5656C199.805 56.0906 193.047 56.0221 193.047 53.8321C193.047 53.0793 193.454 52.6687 194.609 52.6687C195.696 52.6687 196.816 52.9424 197.903 53.4557L199.262 49.7943C197.564 49.0073 195.899 48.5967 194.235 48.5967C190.873 48.5967 188.156 50.7182 188.156 53.8321C188.156 59.5809 194.915 59.136 194.915 61.4971C194.915 62.3526 194.269 62.8659 193.115 62.8659C191.62 62.8659 190.262 62.3184 188.802 61.6682L187.715 65.535Z" fill="white"/>
<path d="M217 61.7025C215.37 62.3868 213.876 62.8317 211.974 62.8317C208.781 62.8317 207.627 60.9154 207.287 58.7596H218.902C218.902 52.7029 216.049 48.5967 210.785 48.5967C205.555 48.5967 202.567 52.874 202.567 57.8015C202.567 62.7632 205.827 66.9379 211.838 66.9379C214.113 66.9379 215.947 66.5273 217.951 65.6034L217 61.7025ZM207.423 55.6457C207.966 53.3189 209.427 52.7029 210.785 52.7029C212.11 52.7029 213.604 53.0109 214.181 55.6457H207.423Z" fill="white"/>
<path d="M81.506 41.9416C81.506 43.4535 80.2955 44.6791 78.7891 44.6791C77.2828 44.6791 76.0723 43.4535 76.0723 41.9416C76.0723 40.4297 77.2887 39.2041 78.7891 39.2041C80.2896 39.2041 81.506 40.4297 81.506 41.9416Z" fill="white"/>
<path fill-rule="evenodd" clip-rule="evenodd" d="M47.4371 28.5787C46.5338 27.9858 45.3571 27.9858 44.4538 28.5787L28.3941 39.1196C27.6568 39.5902 27.1689 40.4076 27.1689 41.3372C27.1689 42.7957 28.3699 43.978 29.8513 43.978C30.4164 43.978 30.9407 43.806 31.3731 43.5122L45.9455 33.9475L57.2039 41.3371L44.4659 49.6978C42.8693 50.7457 42.8693 53.0555 44.4659 54.1034L57.2039 62.4641L45.9455 69.8537L32.5337 61.0508V48.2694H27.1689V62.4606C27.1689 63.3458 27.6183 64.1724 28.3664 64.6634L44.4538 75.2225C45.3571 75.8154 46.5338 75.8154 47.4371 75.2225L63.5192 64.667C65.1157 63.619 65.1157 61.3092 63.5192 60.2613L50.7812 51.9006L63.5192 43.5399C65.1157 42.492 65.1157 40.1822 63.5192 39.1343L47.4371 28.5787Z" fill="white"/>
<path fill-rule="evenodd" clip-rule="evenodd" d="M317.188 16.9667C316.287 16.364 315.113 16.364 314.212 16.9667L298.187 27.6854C297.454 28.1642 296.968 28.9942 296.968 29.938C296.968 31.4208 298.166 32.6229 299.644 32.6229C300.209 32.6229 300.733 32.4474 301.164 32.1478L315.7 22.4251L326.931 29.9379L314.224 38.4379C312.631 39.5033 312.631 41.8517 314.224 42.9171L326.931 51.4172L315.7 58.93L302.32 49.9802V36.9858H296.968V51.4136C296.968 52.3135 297.417 53.1539 298.163 53.6531L314.212 64.3883C315.113 64.9911 316.287 64.9911 317.188 64.3883L333.231 53.6567C334.824 52.5913 334.824 50.243 333.231 49.1776L320.524 40.6775L333.231 32.1774C334.824 31.112 334.824 28.7637 333.231 27.6983L317.188 16.9667Z" fill="white"/>
<path d="M275.867 86.9349H278.53V77.0954H275.867V86.9349Z" fill="white"/>
<path d="M288.032 86.9349H290.408V72.8894H287.745V77.8671C287.074 77.2304 286.212 76.8445 285.159 76.8445C282.304 76.8445 280.619 79.4105 280.619 82.0344C280.619 84.6969 282.381 87.1857 285.159 87.1857C286.289 87.1857 287.189 86.7613 287.86 86.0667L288.032 86.9349ZM285.523 84.8705C284.067 84.8705 283.377 83.5007 283.377 82.0344C283.377 80.6453 284.009 79.1597 285.523 79.1597C286.787 79.1597 287.937 80.2016 287.937 82.0344C287.937 83.7129 286.921 84.8705 285.523 84.8705Z" fill="white"/>
<path d="M300.63 84.2338C299.71 84.6197 298.867 84.8705 297.795 84.8705C295.994 84.8705 295.343 83.7901 295.151 82.5746H301.703C301.703 79.1597 300.094 76.8445 297.124 76.8445C294.174 76.8445 292.488 79.2562 292.488 82.0344C292.488 84.8319 294.327 87.1857 297.718 87.1857C299.002 87.1857 300.036 86.9542 301.166 86.4333L300.63 84.2338ZM295.228 80.8189C295.534 79.507 296.358 79.1597 297.124 79.1597C297.871 79.1597 298.714 79.3334 299.04 80.8189H295.228Z" fill="white"/>
<path d="M310.705 86.9349H313.081V77.2883L310.418 77.0954V77.8671C309.747 77.2304 308.885 76.8445 307.832 76.8445C305.054 76.8445 303.292 79.3334 303.292 81.9958C303.292 84.6197 304.977 87.1857 307.832 87.1857C308.962 87.1857 309.862 86.7613 310.533 86.0474L310.705 86.9349ZM308.196 84.8705C306.682 84.8705 306.05 83.3849 306.05 81.9958C306.05 80.5295 306.74 79.1597 308.196 79.1597C309.594 79.1597 310.609 80.3173 310.609 81.9958C310.609 83.8287 309.46 84.8705 308.196 84.8705Z" fill="white"/>
<path d="M315.564 86.9349H317.939L318.111 86.0667C318.782 86.7613 319.682 87.1857 320.812 87.1857C323.59 87.1857 325.353 84.6969 325.353 82.0344C325.353 79.4105 323.667 76.8445 320.812 76.8445C319.74 76.8445 318.878 77.2304 318.226 77.8671V72.6386L315.564 73.1017V86.9349ZM320.449 84.8705C319.05 84.8705 318.035 83.7129 318.035 82.0344C318.035 80.2016 319.184 79.1597 320.449 79.1597C321.962 79.1597 322.594 80.6453 322.594 82.0344C322.594 83.5007 321.904 84.8705 320.449 84.8705Z" fill="white"/>
<path d="M334.445 86.9349H336.82V77.2883L334.157 77.0954V77.8671C333.487 77.2304 332.625 76.8445 331.571 76.8445C328.793 76.8445 327.031 79.3334 327.031 81.9958C327.031 84.6197 328.717 87.1857 331.571 87.1857C332.701 87.1857 333.602 86.7613 334.272 86.0474L334.445 86.9349ZM331.935 84.8705C330.422 84.8705 329.789 83.3849 329.789 81.9958C329.789 80.5295 330.479 79.1597 331.935 79.1597C333.333 79.1597 334.349 80.3173 334.349 81.9958C334.349 83.8287 333.199 84.8705 331.935 84.8705Z" fill="white"/>
<path d="M338.632 86.3947C339.686 86.9542 340.72 87.1857 341.812 87.1857C343.786 87.1857 345.452 85.9509 345.452 84.1567C345.452 81.0698 341.64 81.0312 341.64 79.7964C341.64 79.372 341.87 79.1404 342.521 79.1404C343.134 79.1404 343.766 79.2948 344.379 79.5842L345.146 77.5198C344.188 77.0761 343.249 76.8445 342.31 76.8445C340.414 76.8445 338.881 78.0407 338.881 79.7964C338.881 83.0377 342.694 82.7869 342.694 84.1181C342.694 84.6004 342.33 84.8898 341.678 84.8898C340.835 84.8898 340.069 84.5811 339.245 84.2146L338.632 86.3947Z" fill="white"/>
<path d="M355.152 84.2338C354.232 84.6197 353.389 84.8705 352.316 84.8705C350.516 84.8705 349.864 83.7901 349.673 82.5746H356.224C356.224 79.1597 354.615 76.8445 351.646 76.8445C348.696 76.8445 347.01 79.2562 347.01 82.0344C347.01 84.8319 348.849 87.1857 352.24 87.1857C353.523 87.1857 354.558 86.9542 355.688 86.4333L355.152 84.2338ZM349.749 80.8189C350.056 79.507 350.88 79.1597 351.646 79.1597C352.393 79.1597 353.236 79.3334 353.562 80.8189H349.749Z" fill="white"/>
<path d="M278.722 73.0923C278.722 73.9447 278.039 74.6357 277.189 74.6357C276.34 74.6357 275.657 73.9447 275.657 73.0923C275.657 72.2399 276.343 71.5488 277.189 71.5488C278.036 71.5488 278.722 72.2399 278.722 73.0923Z" fill="white"/>
</svg>
