<svg width="41" height="40" viewBox="0 0 41 40" fill="none" xmlns="http://www.w3.org/2000/svg">
<circle cx="35.0601" cy="17.4698" r="2.77108" fill="#414141"/>
<path d="M34.6468 11.4286C34.6468 8.14643 31.9934 5.48571 28.7203 5.48571C25.4473 5.48571 22.7939 8.14643 22.7939 11.4286V17.1429H28.7203V22.6286H22.7939V28.5714C22.7939 34.8833 17.6913 40 11.397 40C5.10259 40 0 34.8833 0 28.5714C0 22.2596 5.10259 17.1429 11.397 17.1429H14.5881V22.6286H11.397C8.1239 22.6286 5.47054 25.2893 5.47054 28.5714C5.47054 31.8536 8.1239 34.5143 11.397 34.5143C14.67 34.5143 17.3234 31.8536 17.3234 28.5714V11.4286C17.3234 5.11674 22.426 0 28.7203 0C35.0147 0 40.1173 5.11674 40.1173 11.4286H34.6468Z" fill="#414141"/>
</svg>
